<svg width="21" height="21" viewBox="0 0 21 21" fill="none" xmlns="http://www.w3.org/2000/svg">
<g clip-path="url(#clip0_48_40590)">
<path fill-rule="evenodd" clip-rule="evenodd" d="M20.9677 20.9677H16.7742V13.6301C16.7742 11.6172 15.8862 10.4941 14.2937 10.4941C12.5607 10.4941 11.5323 11.6643 11.5323 13.6301V20.9677H7.33871V7.33871H11.5323V8.87136C11.5323 8.87136 12.848 6.56266 15.8128 6.56266C18.7787 6.56266 20.9677 8.37253 20.9677 12.1174V20.9677ZM2.56016 5.15901C1.14589 5.15901 0 4.00375 0 2.57899C0 1.15528 1.14589 0 2.56016 0C3.97339 0 5.11927 1.15528 5.11927 2.57899C5.12032 4.00375 3.97339 5.15901 2.56016 5.15901ZM0 20.9677H5.24194V7.33871H0V20.9677Z" fill="#F5F1E1"/>
</g>
<defs>
<clipPath id="clip0_48_40590">
<rect width="20.9677" height="20.9677" fill="white"/>
</clipPath>
</defs>
</svg>
