<svg width="22" height="21" viewBox="0 0 22 21" fill="none" xmlns="http://www.w3.org/2000/svg">
<g clip-path="url(#clip0_48_40595)">
<path fill-rule="evenodd" clip-rule="evenodd" d="M6.37145 0.128668C4.66479 0.205672 3.18556 0.622927 1.99111 1.81233C0.792494 3.00799 0.380422 4.49308 0.303226 6.18198C0.255239 7.23611 -0.0253624 15.1998 0.788323 17.2883C1.33704 18.6973 2.41775 19.7806 3.83961 20.3311C4.50308 20.5892 5.26045 20.7639 6.37145 20.8149C15.661 21.2353 19.1046 21.0064 20.5567 17.2883C20.8143 16.6265 20.9917 15.8698 21.0407 14.7616C21.4653 5.44816 20.9719 3.42943 19.3529 1.81233C18.0687 0.53135 16.5582 -0.340643 6.37145 0.128668ZM6.45697 18.9418C5.43986 18.896 4.88802 18.7265 4.51978 18.584C3.59343 18.2239 2.89763 17.531 2.53982 16.6101C1.92016 15.0231 2.12568 7.48603 2.18097 6.26644C2.23521 5.07183 2.47723 3.98003 3.32012 3.13715C4.36331 2.09654 5.71109 1.58655 14.888 2.00071C16.0856 2.05482 17.1799 2.29634 18.0249 3.13715C19.0681 4.17775 19.5855 5.5359 19.164 14.6776C19.1181 15.6922 18.9481 16.2427 18.8052 16.6101C17.8611 19.0294 15.6892 19.3653 6.45697 18.9418ZM14.9892 4.91654C14.9892 5.60543 15.5494 6.1656 16.241 6.1656C16.9327 6.1656 17.4939 5.60543 17.4939 4.91654C17.4939 4.22767 16.9327 3.668 16.241 3.668C15.5494 3.668 14.9892 4.22767 14.9892 4.91654ZM5.31573 10.4713C5.31573 13.4224 7.71402 15.8151 10.6725 15.8151C13.631 15.8151 16.0293 13.4224 16.0293 10.4713C16.0293 7.52011 13.631 5.12898 10.6725 5.12898C7.71402 5.12898 5.31573 7.52011 5.31573 10.4713ZM7.19555 10.4713C7.19555 8.55655 8.75199 7.00308 10.6725 7.00308C12.593 7.00308 14.1494 8.55655 14.1494 10.4713C14.1494 12.387 12.593 13.941 10.6725 13.941C8.75199 13.941 7.19555 12.387 7.19555 10.4713Z" fill="#F5F1E1"/>
</g>
<defs>
<clipPath id="clip0_48_40595">
<rect width="20.9677" height="20.9677" fill="white" transform="translate(0.217773)"/>
</clipPath>
</defs>
</svg>
