<svg width="145" height="25" viewBox="0 0 145 25" fill="none" xmlns="http://www.w3.org/2000/svg">
<path d="M57.5312 9.27557C57.4555 8.60322 57.143 8.08239 56.5938 7.71307C56.0445 7.33902 55.3532 7.15199 54.5199 7.15199C53.9233 7.15199 53.4072 7.24669 52.9716 7.43608C52.536 7.62074 52.1974 7.87642 51.956 8.20312C51.7192 8.52509 51.6009 8.89205 51.6009 9.30398C51.6009 9.64962 51.6813 9.94792 51.8423 10.1989C52.008 10.4498 52.2235 10.6605 52.4886 10.831C52.7585 10.9967 53.0473 11.1364 53.3551 11.25C53.6629 11.3589 53.9588 11.4489 54.2429 11.5199L55.6634 11.8892C56.1274 12.0028 56.6032 12.1567 57.0909 12.3509C57.5786 12.545 58.0308 12.8007 58.4474 13.1179C58.8641 13.4351 59.2003 13.8281 59.456 14.2969C59.7164 14.7656 59.8466 15.3267 59.8466 15.9801C59.8466 16.804 59.6335 17.5355 59.2074 18.1747C58.786 18.8139 58.1728 19.3182 57.3679 19.6875C56.5677 20.0568 55.5994 20.2415 54.4631 20.2415C53.3741 20.2415 52.4318 20.0687 51.6364 19.723C50.8409 19.3774 50.2183 18.8873 49.7685 18.2528C49.3187 17.6136 49.0701 16.8561 49.0227 15.9801H51.2244C51.267 16.5057 51.4375 16.9437 51.7358 17.294C52.0388 17.6397 52.4247 17.8977 52.8935 18.0682C53.367 18.2339 53.8854 18.3168 54.4489 18.3168C55.0691 18.3168 55.6207 18.2197 56.1037 18.0256C56.5914 17.8267 56.9749 17.5521 57.2543 17.2017C57.5336 16.8466 57.6733 16.4323 57.6733 15.9588C57.6733 15.5279 57.5502 15.1752 57.304 14.9006C57.0625 14.6259 56.7334 14.3987 56.3168 14.2188C55.9048 14.0388 55.4384 13.8802 54.9176 13.7429L53.1989 13.2741C52.0341 12.9569 51.1108 12.4905 50.429 11.875C49.7519 11.2595 49.4134 10.4451 49.4134 9.43182C49.4134 8.59375 49.6406 7.86222 50.0952 7.23722C50.5497 6.61222 51.1652 6.12689 51.9418 5.78125C52.7183 5.43087 53.5942 5.25568 54.5696 5.25568C55.5545 5.25568 56.4233 5.4285 57.1761 5.77415C57.9337 6.11979 58.5303 6.59564 58.9659 7.2017C59.4015 7.80303 59.6288 8.49432 59.6477 9.27557H57.5312ZM69.2092 15.4759V9.09091H71.3398V20H69.2518V18.1108H69.1381C68.8872 18.6932 68.4847 19.1785 67.9308 19.5668C67.3815 19.9503 66.6973 20.142 65.8782 20.142C65.1774 20.142 64.5572 19.9882 64.0174 19.6804C63.4824 19.3679 63.061 18.9062 62.7532 18.2955C62.4502 17.6847 62.2987 16.9295 62.2987 16.0298V9.09091H64.4222V15.7741C64.4222 16.5175 64.6282 17.1094 65.0401 17.5497C65.4521 17.9901 65.9871 18.2102 66.6452 18.2102C67.043 18.2102 67.4383 18.1108 67.8313 17.9119C68.229 17.7131 68.5581 17.4124 68.8185 17.0099C69.0837 16.6075 69.2139 16.0961 69.2092 15.4759ZM74.3636 20V5.45455H76.4872V10.8594H76.6151C76.7382 10.6321 76.9157 10.3693 77.1477 10.071C77.3797 9.77273 77.7017 9.51231 78.1136 9.28977C78.5256 9.0625 79.0701 8.94886 79.7472 8.94886C80.6278 8.94886 81.4138 9.1714 82.1051 9.61648C82.7964 10.0616 83.3385 10.7031 83.7315 11.5412C84.1293 12.3793 84.3281 13.3878 84.3281 14.5668C84.3281 15.7457 84.1316 16.7566 83.7386 17.5994C83.3456 18.4375 82.8059 19.0838 82.1193 19.5384C81.4328 19.9882 80.6491 20.2131 79.7685 20.2131C79.1056 20.2131 78.5634 20.1018 78.142 19.8793C77.7254 19.6567 77.3987 19.3963 77.1619 19.098C76.9252 18.7997 76.7429 18.5346 76.6151 18.3026H76.4375V20H74.3636ZM76.4446 14.5455C76.4446 15.3125 76.5559 15.9848 76.7784 16.5625C77.0009 17.1402 77.3229 17.5923 77.7443 17.919C78.1657 18.241 78.6818 18.402 79.2926 18.402C79.9271 18.402 80.4574 18.2339 80.8835 17.8977C81.3097 17.5568 81.6316 17.0952 81.8494 16.5128C82.072 15.9304 82.1832 15.2746 82.1832 14.5455C82.1832 13.8258 82.0743 13.1795 81.8565 12.6065C81.6435 12.0336 81.3215 11.5814 80.8906 11.25C80.4645 10.9186 79.9318 10.7528 79.2926 10.7528C78.6771 10.7528 78.1562 10.9115 77.7301 11.2287C77.3087 11.5459 76.9891 11.9886 76.7713 12.5568C76.5535 13.125 76.4446 13.7879 76.4446 14.5455ZM94.8874 11.7543L92.9627 12.0952C92.8822 11.849 92.7544 11.6146 92.5792 11.392C92.4087 11.1695 92.1767 10.9872 91.8832 10.8452C91.5896 10.7031 91.2227 10.6321 90.7823 10.6321C90.181 10.6321 89.6791 10.767 89.2766 11.0369C88.8742 11.3021 88.6729 11.6454 88.6729 12.0668C88.6729 12.4313 88.8079 12.7249 89.0778 12.9474C89.3477 13.17 89.7833 13.3523 90.3846 13.4943L92.1175 13.892C93.1213 14.1241 93.8694 14.4815 94.3619 14.9645C94.8543 15.4474 95.1005 16.0748 95.1005 16.8466C95.1005 17.5 94.9111 18.0824 94.5323 18.5938C94.1583 19.1004 93.6351 19.4981 92.9627 19.7869C92.2951 20.0758 91.521 20.2202 90.6403 20.2202C89.4187 20.2202 88.422 19.9598 87.6502 19.4389C86.8784 18.9134 86.4049 18.1676 86.2298 17.2017L88.2823 16.8892C88.4102 17.4242 88.6729 17.8291 89.0707 18.1037C89.4684 18.3736 89.9869 18.5085 90.6261 18.5085C91.3221 18.5085 91.8784 18.3641 92.2951 18.0753C92.7118 17.7817 92.9201 17.4242 92.9201 17.0028C92.9201 16.6619 92.7923 16.3755 92.5366 16.1435C92.2856 15.9115 91.8997 15.7363 91.3789 15.6179L89.5323 15.2131C88.5143 14.9811 87.7615 14.6117 87.2738 14.1051C86.7908 13.5985 86.5494 12.9569 86.5494 12.1804C86.5494 11.5365 86.7293 10.973 87.0891 10.4901C87.449 10.0071 87.9461 9.63068 88.5806 9.3608C89.2151 9.08617 89.9419 8.94886 90.761 8.94886C91.94 8.94886 92.868 9.20455 93.5451 9.71591C94.2222 10.2225 94.6696 10.902 94.8874 11.7543ZM102.031 20.2202C100.975 20.2202 100.066 19.9811 99.3033 19.5028C98.5457 19.0199 97.9633 18.3546 97.5561 17.5071C97.1489 16.6596 96.9453 15.6889 96.9453 14.5952C96.9453 13.4872 97.1536 12.5095 97.5703 11.6619C97.987 10.8097 98.5741 10.1444 99.3317 9.66619C100.089 9.18797 100.982 8.94886 102.009 8.94886C102.838 8.94886 103.576 9.10275 104.225 9.41051C104.874 9.71354 105.397 10.1397 105.795 10.6889C106.197 11.2382 106.436 11.8797 106.512 12.6136H104.445C104.332 12.1023 104.071 11.6619 103.664 11.2926C103.262 10.9233 102.722 10.7386 102.045 10.7386C101.453 10.7386 100.934 10.8949 100.489 11.2074C100.049 11.5152 99.7057 11.9555 99.4595 12.5284C99.2133 13.0966 99.0902 13.7689 99.0902 14.5455C99.0902 15.3409 99.2109 16.0275 99.4524 16.6051C99.6939 17.1828 100.035 17.6302 100.475 17.9474C100.92 18.2647 101.443 18.4233 102.045 18.4233C102.447 18.4233 102.812 18.3499 103.138 18.2031C103.47 18.0516 103.747 17.8362 103.969 17.5568C104.197 17.2775 104.355 16.9413 104.445 16.5483H106.512C106.436 17.2538 106.207 17.8835 105.823 18.4375C105.44 18.9915 104.926 19.4271 104.282 19.7443C103.643 20.0616 102.892 20.2202 102.031 20.2202ZM108.783 20V9.09091H110.836V10.8239H110.949C111.148 10.2367 111.498 9.77509 112 9.43892C112.507 9.09801 113.08 8.92756 113.719 8.92756C113.852 8.92756 114.008 8.93229 114.188 8.94176C114.373 8.95123 114.517 8.96307 114.621 8.97727V11.0085C114.536 10.9848 114.384 10.9588 114.167 10.9304C113.949 10.8973 113.731 10.8807 113.513 10.8807C113.011 10.8807 112.564 10.9872 112.171 11.2003C111.783 11.4086 111.475 11.6998 111.248 12.0739C111.02 12.4432 110.907 12.8646 110.907 13.3381V20H108.783ZM116.459 20V9.09091H118.582V20H116.459ZM117.531 7.40767C117.162 7.40767 116.845 7.28456 116.58 7.03835C116.319 6.7874 116.189 6.48911 116.189 6.14347C116.189 5.79309 116.319 5.49479 116.58 5.24858C116.845 4.99763 117.162 4.87216 117.531 4.87216C117.901 4.87216 118.215 4.99763 118.476 5.24858C118.741 5.49479 118.874 5.79309 118.874 6.14347C118.874 6.48911 118.741 6.7874 118.476 7.03835C118.215 7.28456 117.901 7.40767 117.531 7.40767ZM121.61 20V5.45455H123.733V10.8594H123.861C123.984 10.6321 124.162 10.3693 124.394 10.071C124.626 9.77273 124.948 9.51231 125.36 9.28977C125.772 9.0625 126.316 8.94886 126.993 8.94886C127.874 8.94886 128.66 9.1714 129.351 9.61648C130.042 10.0616 130.585 10.7031 130.978 11.5412C131.375 12.3793 131.574 13.3878 131.574 14.5668C131.574 15.7457 131.378 16.7566 130.985 17.5994C130.592 18.4375 130.052 19.0838 129.365 19.5384C128.679 19.9882 127.895 20.2131 127.015 20.2131C126.352 20.2131 125.81 20.1018 125.388 19.8793C124.971 19.6567 124.645 19.3963 124.408 19.098C124.171 18.7997 123.989 18.5346 123.861 18.3026H123.684V20H121.61ZM123.691 14.5455C123.691 15.3125 123.802 15.9848 124.025 16.5625C124.247 17.1402 124.569 17.5923 124.99 17.919C125.412 18.241 125.928 18.402 126.539 18.402C127.173 18.402 127.703 18.2339 128.13 17.8977C128.556 17.5568 128.878 17.0952 129.096 16.5128C129.318 15.9304 129.429 15.2746 129.429 14.5455C129.429 13.8258 129.32 13.1795 129.103 12.6065C128.89 12.0336 128.568 11.5814 128.137 11.25C127.711 10.9186 127.178 10.7528 126.539 10.7528C125.923 10.7528 125.402 10.9115 124.976 11.2287C124.555 11.5459 124.235 11.9886 124.017 12.5568C123.8 13.125 123.691 13.7879 123.691 14.5455ZM138.661 20.2202C137.586 20.2202 136.66 19.9905 135.884 19.5312C135.112 19.0672 134.515 18.4162 134.094 17.5781C133.677 16.7353 133.469 15.7481 133.469 14.6165C133.469 13.4991 133.677 12.5142 134.094 11.6619C134.515 10.8097 135.102 10.1444 135.855 9.66619C136.613 9.18797 137.498 8.94886 138.511 8.94886C139.127 8.94886 139.723 9.05066 140.301 9.25426C140.879 9.45786 141.397 9.77746 141.857 10.2131C142.316 10.6487 142.678 11.2145 142.943 11.9105C143.208 12.6018 143.341 13.4422 143.341 14.4318V15.1847H134.669V13.5938H141.26C141.26 13.035 141.146 12.5402 140.919 12.1094C140.692 11.6738 140.372 11.3305 139.96 11.0795C139.553 10.8286 139.075 10.7031 138.526 10.7031C137.929 10.7031 137.408 10.8499 136.963 11.1435C136.523 11.4323 136.182 11.8111 135.94 12.2798C135.704 12.7438 135.585 13.2481 135.585 13.7926V15.0355C135.585 15.7647 135.713 16.3849 135.969 16.8963C136.229 17.4077 136.591 17.7983 137.055 18.0682C137.519 18.3333 138.062 18.4659 138.682 18.4659C139.084 18.4659 139.451 18.4091 139.783 18.2955C140.114 18.1771 140.401 18.0019 140.642 17.7699C140.884 17.5379 141.068 17.2514 141.196 16.9105L143.206 17.2727C143.045 17.8646 142.756 18.383 142.339 18.8281C141.928 19.2685 141.409 19.6117 140.784 19.858C140.164 20.0994 139.456 20.2202 138.661 20.2202Z" fill="white"/>
<path d="M17.6933 25C17.6933 25 28.7904 25 31.5429 24.25C33.0928 23.8251 34.2582 22.6001 34.6675 21.0875C35.4238 18.3125 35.4238 12.475 35.4238 12.475C35.4238 12.475 35.4238 6.67499 34.6675 3.92498C34.2582 2.375 33.0928 1.17497 31.5429 0.762487C28.7904 -3.47753e-07 17.6933 0 17.6933 0C17.6933 0 6.62107 -3.47753e-07 3.88086 0.762487C2.35585 1.17497 1.16553 2.375 0.73159 3.92498C-8.04861e-07 6.67499 0 12.475 0 12.475C0 12.475 -8.04861e-07 18.3125 0.73159 21.0875C1.16553 22.6001 2.35585 23.8251 3.88086 24.25C6.62107 25 17.6933 25 17.6933 25Z" fill="#FF0000"/>
<path d="M23.3605 12.475L14.1729 7.13745V17.8499L23.3605 12.475Z" fill="white"/>
</svg>
