<svg width="106" height="30" viewBox="0 0 106 30" fill="none" xmlns="http://www.w3.org/2000/svg">
<path d="M49.7865 27.3622C47.6648 27.3622 45.8433 26.628 45.0821 25.7937C45.0101 25.7116 45 25.6666 45 25.5665V23.0828C45 22.9647 45.1001 22.9197 45.181 23.0198C46.0963 24.1622 48.0459 25.0954 49.6414 25.0954C50.9109 25.0954 51.7632 24.7514 51.7632 23.627C51.7632 22.9557 51.4461 22.5206 49.7145 22.0315L48.7172 21.7504C46.4055 21.0982 45 20.3269 45 18.1152C45 16.1577 46.8125 14.4351 49.8405 14.4351C51.3269 14.4351 52.8043 14.8973 53.6566 15.5325C53.7286 15.5865 53.7567 15.6416 53.7567 15.7405V17.9983C53.7567 18.1524 53.6296 18.1973 53.5116 18.0984C52.8223 17.5272 51.4899 16.757 49.9124 16.757C48.3349 16.757 47.5917 17.4642 47.5917 18.1164C47.5917 18.8056 48.0718 18.9956 49.7854 19.5039L50.6376 19.758C53.2754 20.5462 54.3549 21.6526 54.3549 23.4842C54.3549 25.8409 52.3973 27.3644 49.7865 27.3644V27.3622ZM68.2702 22.6297C68.2702 21.1882 69.2675 20.1189 70.673 20.1189C72.0785 20.1189 73.0657 21.1882 73.0657 22.6297C73.0657 24.0711 72.0684 25.1404 70.673 25.1404C69.2776 25.1404 68.2702 24.0711 68.2702 22.6297ZM70.6629 27.3622C73.5908 27.3622 75.6304 25.2686 75.6304 22.6297C75.6304 19.9907 73.5908 17.8971 70.6629 17.8971C67.735 17.8971 65.7044 19.9727 65.7044 22.6297C65.7044 25.2866 67.726 27.3622 70.6629 27.3622ZM88.3404 17.354V18.1152H86.7989C86.7168 18.1152 86.6718 18.1602 86.6718 18.2423V20.0548C86.6718 20.1369 86.7168 20.1819 86.7989 20.1819H88.3404V27.017C88.3404 27.0991 88.3854 27.1441 88.4675 27.1441H90.7882C90.8703 27.1441 90.9152 27.0991 90.9152 27.017V20.1819H92.9009L95.7838 26.4458L94.2333 29.8538C94.1883 29.9539 94.2423 29.9989 94.3334 29.9989H96.8081C96.8902 29.9989 96.9262 29.9809 96.9622 29.8988L102.084 18.2592C102.12 18.1771 102.075 18.1141 101.984 18.1141H99.6629C99.5809 18.1141 99.5449 18.1321 99.5089 18.2142L97.1702 23.835L94.8225 18.2142C94.7865 18.1321 94.7505 18.1141 94.6684 18.1141H90.9152V17.516C90.9152 16.5366 91.5775 16.0835 92.4287 16.0835C92.9358 16.0835 93.489 16.3466 93.8791 16.5816C93.9702 16.6356 94.0332 16.5726 93.9972 16.4905L93.1809 14.542C93.1539 14.479 93.1179 14.4419 93.0538 14.4059C92.6547 14.1979 92.0025 14.0157 91.3672 14.0157C89.4457 14.0157 88.3393 15.4842 88.3393 17.3518L88.3404 17.354ZM61.0179 27.3071C63.3387 27.3071 65.0061 25.3034 65.0061 22.6117C65.0061 19.9199 63.3195 17.9522 60.9988 17.9522C59.2763 17.9522 58.2789 19.0035 57.6988 20.0548V18.2423C57.6988 18.1602 57.6538 18.1152 57.5717 18.1152H55.296C55.2139 18.1152 55.1689 18.1602 55.1689 18.2423V29.8729C55.1689 29.955 55.2139 30 55.296 30H57.5717C57.6538 30 57.6988 29.955 57.6988 29.8729V25.2225C58.2789 26.2738 59.2583 27.3071 61.0168 27.3071H61.0179ZM80.3809 27.2711C81.1421 27.2711 81.8763 27.0721 82.3115 26.818C82.3744 26.782 82.3834 26.746 82.3834 26.6819V24.9594C82.3834 24.8683 82.3385 24.8413 82.2564 24.8874C81.9933 25.0325 81.6492 25.1505 81.1781 25.1505C80.4349 25.1505 79.9638 24.7154 79.9638 23.754V20.1819H82.2305C82.3126 20.1819 82.3576 20.1369 82.3576 20.0548V18.2423C82.3576 18.1602 82.3126 18.1152 82.2305 18.1152H79.9638V15.7495C79.9638 15.6495 79.9008 15.5955 79.8097 15.6675L75.7575 18.8585C75.7035 18.9034 75.6855 18.9495 75.6855 19.0215V20.0548C75.6855 20.1369 75.7305 20.1819 75.8126 20.1819H77.3901V24.1341C77.3901 26.2738 78.6224 27.2711 80.382 27.2711H80.3809ZM83.0007 15.4325C83.0007 16.2488 83.6349 16.8649 84.5051 16.8649C85.3754 16.8649 86.0276 16.2488 86.0276 15.4325C86.0276 14.6162 85.3934 14 84.5051 14C83.6169 14 83.0007 14.6162 83.0007 15.4325ZM83.3538 27.1452H85.6745C85.7566 27.1452 85.8016 27.1002 85.8016 27.0181V18.2434C85.8016 18.1613 85.7566 18.1164 85.6745 18.1164H83.3538C83.2717 18.1164 83.2267 18.1613 83.2267 18.2434V27.0181C83.2267 27.1002 83.2717 27.1452 83.3538 27.1452ZM57.6448 22.5948C58.0619 21.1983 59.0222 20.129 60.3276 20.129C61.633 20.129 62.4302 21.0713 62.4302 22.6128C62.4302 24.1543 61.5689 25.1145 60.3276 25.1145C59.0863 25.1145 58.0608 23.9182 57.6448 22.5948Z" fill="white"/>
<path d="M105.057 18.6482C104.937 18.4425 104.772 18.2817 104.561 18.1648C104.349 18.0489 104.113 17.9905 103.85 17.9905C103.587 17.9905 103.351 18.0489 103.139 18.1648C102.928 18.2817 102.763 18.4425 102.644 18.6482C102.524 18.854 102.465 19.0868 102.465 19.3465C102.465 19.6062 102.524 19.8345 102.644 20.0402C102.763 20.246 102.928 20.4068 103.139 20.5237C103.351 20.6407 103.587 20.698 103.85 20.698C104.113 20.698 104.349 20.6395 104.561 20.5237C104.772 20.4079 104.937 20.246 105.057 20.0402C105.176 19.8345 105.235 19.604 105.235 19.3465C105.235 19.089 105.176 18.854 105.057 18.6482ZM104.84 19.9255C104.743 20.0965 104.608 20.2291 104.436 20.3258C104.264 20.4214 104.068 20.4697 103.851 20.4697C103.634 20.4697 103.433 20.4214 103.261 20.3258C103.089 20.2303 102.955 20.0965 102.86 19.9255C102.764 19.7558 102.717 19.5624 102.717 19.3465C102.717 19.1306 102.764 18.9383 102.86 18.7697C102.955 18.601 103.089 18.4683 103.261 18.3728C103.433 18.2772 103.63 18.2288 103.851 18.2288C104.073 18.2288 104.264 18.2772 104.436 18.3728C104.608 18.4683 104.743 18.6021 104.84 18.7731C104.936 18.944 104.985 19.1362 104.985 19.3521C104.985 19.568 104.936 19.7558 104.84 19.9267V19.9255Z" fill="white"/>
<path d="M104.321 19.3206C104.413 19.2532 104.459 19.1632 104.459 19.0519C104.459 18.9406 104.414 18.8461 104.324 18.7787C104.234 18.7112 104.104 18.6775 103.933 18.6775H103.33V19.9368H103.621V19.4365H103.78L104.163 19.9368H104.521L104.101 19.4061C104.19 19.3892 104.266 19.3611 104.322 19.3195L104.321 19.3206ZM103.887 19.2093H103.621V18.9012H103.897C103.979 18.9012 104.042 18.9136 104.086 18.9395C104.13 18.9653 104.152 19.0047 104.152 19.0587C104.152 19.1093 104.128 19.1475 104.083 19.1722C104.037 19.1981 103.972 19.2104 103.887 19.2104V19.2093Z" fill="white"/>
<path d="M45.2147 9.37988V1.05261H46.4711V8.29831H50.2444V9.37988H45.2147ZM51.2137 9.37988V3.13443H52.4294V9.37988H51.2137ZM51.8276 2.17077C51.6162 2.17077 51.4346 2.1003 51.2828 1.95934C51.1337 1.81567 51.0592 1.6449 51.0592 1.44702C51.0592 1.24643 51.1337 1.07565 51.2828 0.934694C51.4346 0.791027 51.6162 0.719194 51.8276 0.719194C52.0391 0.719194 52.2193 0.791027 52.3684 0.934694C52.5202 1.07565 52.5961 1.24643 52.5961 1.44702C52.5961 1.6449 52.5202 1.81567 52.3684 1.95934C52.2193 2.1003 52.0391 2.17077 51.8276 2.17077ZM58.3786 4.6592L57.2767 4.85437C57.2306 4.71341 57.1574 4.57923 57.0571 4.45183C56.9596 4.32443 56.8267 4.22006 56.6587 4.13874C56.4906 4.05742 56.2805 4.01676 56.0284 4.01676C55.6842 4.01676 55.3968 4.09402 55.1664 4.24853C54.936 4.40033 54.8208 4.59685 54.8208 4.8381C54.8208 5.04683 54.8981 5.21489 55.0526 5.34229C55.2071 5.4697 55.4565 5.57406 55.8007 5.65538L56.7929 5.88308C57.3675 6.0159 57.7958 6.22056 58.0777 6.49705C58.3596 6.77354 58.5006 7.13271 58.5006 7.57456C58.5006 7.94863 58.3922 8.28205 58.1753 8.5748C57.9612 8.86485 57.6616 9.09255 57.2767 9.2579C56.8945 9.42325 56.4513 9.50593 55.9471 9.50593C55.2478 9.50593 54.6772 9.35684 54.2353 9.05866C53.7935 8.75778 53.5224 8.33084 53.4221 7.77786L54.5972 7.59895C54.6704 7.90526 54.8208 8.13703 55.0485 8.29425C55.2762 8.44876 55.573 8.52601 55.939 8.52601C56.3375 8.52601 56.656 8.44334 56.8945 8.27798C57.133 8.10992 57.2523 7.90526 57.2523 7.66401C57.2523 7.46884 57.1791 7.30484 57.0327 7.17202C56.8891 7.03919 56.6682 6.9389 56.37 6.87113L55.3128 6.63936C54.73 6.50654 54.299 6.29511 54.0198 6.00506C53.7433 5.71502 53.6051 5.34772 53.6051 4.90316C53.6051 4.53451 53.7081 4.21193 53.9141 3.93544C54.1201 3.65895 54.4047 3.44345 54.768 3.28894C55.1312 3.13172 55.5473 3.05311 56.0162 3.05311C56.6912 3.05311 57.2225 3.19949 57.6101 3.49224C57.9978 3.78229 58.2539 4.17127 58.3786 4.6592ZM62.3863 3.13443V4.11028H58.9749V3.13443H62.3863ZM59.8897 1.63812H61.1055V7.54609C61.1055 7.78192 61.1407 7.95948 61.2112 8.07875C61.2817 8.19531 61.3725 8.27527 61.4836 8.31864C61.5975 8.3593 61.7208 8.37963 61.8536 8.37963C61.9512 8.37963 62.0366 8.37286 62.1098 8.3593C62.183 8.34575 62.2399 8.33491 62.2805 8.32678L62.5001 9.33109C62.4296 9.3582 62.3293 9.3853 62.1992 9.41241C62.0691 9.44223 61.9065 9.45849 61.7113 9.4612C61.3914 9.46663 61.0933 9.4097 60.8168 9.29043C60.5403 9.17116 60.3166 8.98683 60.1459 8.73745C59.9751 8.48806 59.8897 8.17498 59.8897 7.79819V1.63812ZM65.9893 9.50593C65.374 9.50593 64.8441 9.37446 64.3995 9.11152C63.9577 8.84587 63.6161 8.47315 63.3749 7.99336C63.1363 7.51085 63.0171 6.94567 63.0171 6.29782C63.0171 5.65809 63.1363 5.09426 63.3749 4.60634C63.6161 4.11841 63.9523 3.73756 64.3833 3.46378C64.817 3.19 65.3239 3.05311 65.904 3.05311C66.2564 3.05311 66.5979 3.11139 66.9286 3.22795C67.2593 3.34451 67.5561 3.52748 67.8191 3.77686C68.082 4.02625 68.2894 4.35018 68.4412 4.74865C68.593 5.14441 68.6689 5.62556 68.6689 6.1921V6.6231H63.7042V5.7123H67.4775C67.4775 5.39244 67.4125 5.10917 67.2824 4.8625C67.1522 4.61312 66.9693 4.41659 66.7334 4.27292C66.5003 4.12926 66.2265 4.05742 65.9121 4.05742C65.5705 4.05742 65.2724 4.14145 65.0176 4.30952C64.7655 4.47487 64.5703 4.69173 64.4321 4.96009C64.2965 5.22573 64.2287 5.51442 64.2287 5.82615V6.53771C64.2287 6.95516 64.3019 7.31026 64.4483 7.60302C64.5974 7.89577 64.8048 8.11941 65.0704 8.27392C65.3361 8.42572 65.6464 8.50162 66.0015 8.50162C66.232 8.50162 66.442 8.46909 66.6318 8.40403C66.8215 8.33626 66.9855 8.23597 67.1238 8.10314C67.262 7.97032 67.3677 7.80632 67.4409 7.61115L68.5916 7.81852C68.4995 8.15736 68.3341 8.45418 68.0956 8.70898C67.8597 8.96108 67.5629 9.15761 67.2051 9.29856C66.85 9.43681 66.4447 9.50593 65.9893 9.50593ZM70.8671 5.67164V9.37988H69.6514V3.13443H70.8183V4.15094H70.8956C71.0393 3.82024 71.2643 3.55459 71.5706 3.35399C71.8796 3.1534 72.2686 3.05311 72.7375 3.05311C73.1631 3.05311 73.5358 3.14256 73.8557 3.32147C74.1755 3.49766 74.4236 3.7606 74.5998 4.11028C74.776 4.45996 74.8641 4.89232 74.8641 5.40735V9.37988H73.6483V5.55373C73.6483 5.10104 73.5304 4.7473 73.2946 4.49249C73.0587 4.23497 72.7348 4.10621 72.3228 4.10621C72.0409 4.10621 71.7901 4.16721 71.5706 4.28919C71.3537 4.41117 71.1816 4.59007 71.0542 4.82591C70.9295 5.05903 70.8671 5.34094 70.8671 5.67164ZM81.4227 9.50593C80.8372 9.50593 80.3262 9.37175 79.8898 9.10339C79.4534 8.83503 79.1146 8.4596 78.8733 7.9771C78.632 7.49459 78.5114 6.93076 78.5114 6.28562C78.5114 5.63776 78.632 5.07122 78.8733 4.58601C79.1146 4.10079 79.4534 3.72401 79.8898 3.45565C80.3262 3.18729 80.8372 3.05311 81.4227 3.05311C82.0082 3.05311 82.5192 3.18729 82.9556 3.45565C83.392 3.72401 83.7309 4.10079 83.9721 4.58601C84.2134 5.07122 84.334 5.63776 84.334 6.28562C84.334 6.93076 84.2134 7.49459 83.9721 7.9771C83.7309 8.4596 83.392 8.83503 82.9556 9.10339C82.5192 9.37175 82.0082 9.50593 81.4227 9.50593ZM81.4268 8.48535C81.8063 8.48535 82.1207 8.38506 82.3701 8.18446C82.6195 7.98387 82.8038 7.71687 82.9231 7.38345C83.0451 7.05004 83.1061 6.68274 83.1061 6.28155C83.1061 5.88308 83.0451 5.51713 82.9231 5.18372C82.8038 4.84759 82.6195 4.57788 82.3701 4.37457C82.1207 4.17127 81.8063 4.06962 81.4268 4.06962C81.0446 4.06962 80.7274 4.17127 80.4753 4.37457C80.2259 4.57788 80.0403 4.84759 79.9183 5.18372C79.799 5.51713 79.7394 5.88308 79.7394 6.28155C79.7394 6.68274 79.799 7.05004 79.9183 7.38345C80.0403 7.71687 80.2259 7.98387 80.4753 8.18446C80.7274 8.38506 81.0446 8.48535 81.4268 8.48535ZM86.5404 5.67164V9.37988H85.3247V3.13443H86.4916V4.15094H86.5689C86.7125 3.82024 86.9375 3.55459 87.2438 3.35399C87.5528 3.1534 87.9418 3.05311 88.4108 3.05311C88.8364 3.05311 89.2091 3.14256 89.5289 3.32147C89.8488 3.49766 90.0968 3.7606 90.273 4.11028C90.4492 4.45996 90.5373 4.89232 90.5373 5.40735V9.37988H89.3216V5.55373C89.3216 5.10104 89.2037 4.7473 88.9678 4.49249C88.732 4.23497 88.4081 4.10621 87.996 4.10621C87.7141 4.10621 87.4634 4.16721 87.2438 4.28919C87.027 4.41117 86.8548 4.59007 86.7274 4.82591C86.6027 5.05903 86.5404 5.34094 86.5404 5.67164Z" fill="white"/>
<path d="M15.5951 0.0120612C7.31685 -0.316982 0.341104 6.12679 0.0120588 14.405C-0.316986 22.6832 6.12818 29.6589 14.405 29.9879C22.6832 30.317 29.659 23.8732 29.988 15.595C30.3157 7.31683 23.8719 0.339734 15.5951 0.0120612ZM21.9264 21.9867C21.74 22.3157 21.3767 22.4803 21.0229 22.4309C20.9146 22.4158 20.8063 22.3802 20.7049 22.3226C18.7224 21.1942 16.5616 20.4594 14.283 20.1386C12.0044 19.8177 9.72436 19.9288 7.50742 20.4676C7.0262 20.5841 6.54223 20.2894 6.42569 19.8082C6.30915 19.3269 6.60392 18.843 7.08515 18.7264C9.52282 18.1341 12.029 18.0121 14.5325 18.3645C17.036 18.7168 19.4106 19.5243 21.5919 20.7651C22.021 21.0105 22.1719 21.5562 21.9278 21.9867H21.9264ZM23.898 18.0491C23.5922 18.614 22.8848 18.8251 22.3199 18.5194C20.0002 17.2649 17.4885 16.4409 14.8547 16.0708C12.221 15.7006 9.58041 15.8007 7.00426 16.3669C6.86442 16.3971 6.72594 16.4025 6.59158 16.3834C6.12407 16.3175 5.72373 15.9693 5.61679 15.4799C5.47832 14.8519 5.87591 14.2309 6.50384 14.0924C9.35145 13.4658 12.2703 13.3548 15.1797 13.7633C18.0876 14.1719 20.8639 15.0823 23.4277 16.4697C23.9939 16.7755 24.2037 17.4815 23.898 18.0478V18.0491ZM26.0834 13.6098C25.7955 14.1637 25.1963 14.4502 24.6123 14.368C24.4546 14.346 24.2997 14.2967 24.1502 14.2199C21.4493 12.8146 18.54 11.8864 15.5032 11.46C12.4664 11.0337 9.41314 11.1241 6.4298 11.7301C5.65381 11.8878 4.89837 11.386 4.74071 10.6114C4.58304 9.83539 5.08483 9.07996 5.85946 8.92229C9.16362 8.25186 12.5418 8.15178 15.9022 8.62341C19.2626 9.09504 22.4817 10.1233 25.4733 11.6794C26.1752 12.0441 26.4481 12.9092 26.0834 13.6112V13.6098Z" fill="#1ED760"/>
<path d="M21.0231 22.4309C21.3768 22.4803 21.7402 22.3158 21.9266 21.9867H21.928C22.172 21.5562 22.0212 21.0106 21.5921 20.7651C19.4108 19.5244 17.0362 18.7169 14.5327 18.3645C12.0292 18.0121 9.523 18.1342 7.08533 18.7264C6.6041 18.843 6.30933 19.327 6.42587 19.8082C6.5424 20.2894 7.02637 20.5842 7.5076 20.4676C9.72454 19.9288 12.0045 19.8178 14.2832 20.1386C16.5618 20.4594 18.7225 21.1943 20.705 22.3226C20.8065 22.3802 20.9148 22.4159 21.0231 22.4309Z" fill="#212121"/>
<path d="M22.3201 18.5194C22.885 18.8252 23.5924 18.614 23.8981 18.0492V18.0478C24.2039 17.4816 23.9941 16.7755 23.4279 16.4698C20.8641 15.0823 18.0878 14.1719 15.1798 13.7634C12.2705 13.3548 9.35162 13.4659 6.50402 14.0924C5.87609 14.2309 5.47849 14.852 5.61697 15.4799C5.72391 15.9693 6.12424 16.3176 6.59176 16.3834C6.72612 16.4026 6.86459 16.3971 7.00444 16.3669C9.58058 15.8007 12.2212 15.7006 14.8549 16.0708C17.4886 16.441 20.0003 17.2649 22.3201 18.5194Z" fill="#212121"/>
<path d="M24.6124 14.368C25.1965 14.4503 25.7956 14.1637 26.0836 13.6098V13.6112C26.4482 12.9092 26.1754 12.0441 25.4734 11.6794C22.4819 10.1233 19.2627 9.09507 15.9024 8.62344C12.542 8.15181 9.16379 8.25189 5.85964 8.92232C5.08501 9.07999 4.58322 9.83542 4.74088 10.6114C4.89855 11.386 5.65398 11.8878 6.42998 11.7302C9.41332 11.1242 12.4666 11.0337 15.5034 11.4601C18.5402 11.8865 21.4495 12.8146 24.1504 14.2199C24.2999 14.2967 24.4548 14.3461 24.6124 14.368Z" fill="#212121"/>
</svg>
