<svg width="116" height="28" viewBox="0 0 116 28" fill="none" xmlns="http://www.w3.org/2000/svg">
<path d="M53.1233 6.63557L54.7594 0.836914H55.552L55.0934 3.09132L53.3328 9.14689H52.546L53.1233 6.63557ZM51.4307 0.836914L52.7327 6.52149L53.1233 9.14689H52.3421L50.3438 0.836914H51.4307ZM57.6693 6.51576L58.9431 0.836914H60.0357L58.043 9.14689H57.2618L57.6693 6.51576ZM55.6709 0.836914L57.2618 6.63557L57.8392 9.14689H57.0523L55.3538 3.09132L54.8897 0.836914H55.6709Z" fill="#2C4657"/>
<path d="M64.5084 8.09105V4.91207C64.5084 4.66859 64.4592 4.45737 64.3611 4.27854C64.2668 4.09596 64.1233 3.95511 63.9309 3.85622C63.7384 3.75734 63.5006 3.70778 63.2176 3.70778C62.9534 3.70778 62.7212 3.75348 62.5212 3.84477C62.325 3.93606 62.1703 4.05598 62.057 4.20431C61.9476 4.35276 61.8928 4.51254 61.8928 4.68378H60.8455C60.8455 4.4631 60.9021 4.24429 61.0154 4.02746C61.1285 3.81052 61.2909 3.61462 61.5022 3.43952C61.7173 3.2608 61.974 3.11995 62.2721 3.01721C62.5741 2.91072 62.91 2.85742 63.2799 2.85742C63.7252 2.85742 64.1177 2.93352 64.4574 3.0857C64.8008 3.23789 65.0688 3.46816 65.2613 3.77627C65.4575 4.08065 65.5557 4.4631 65.5557 4.92352V7.8C65.5557 8.00549 65.5726 8.2243 65.6066 8.45632C65.6444 8.68846 65.6991 8.88822 65.7708 9.0556V9.14701H64.6781C64.6254 9.02521 64.5839 8.86344 64.5536 8.66181C64.5234 8.45632 64.5084 8.26614 64.5084 8.09105ZM64.6895 5.40287L64.7008 6.14487H63.6422C63.344 6.14487 63.0779 6.16966 62.8439 6.2191C62.6099 6.26468 62.4137 6.33517 62.2552 6.4302C62.0967 6.52534 61.9759 6.64527 61.8928 6.78986C61.8098 6.93059 61.7683 7.0961 61.7683 7.2864C61.7683 7.48043 61.8117 7.65728 61.8985 7.81718C61.9852 7.97697 62.1154 8.10437 62.2891 8.19952C62.4665 8.29081 62.6836 8.33651 62.9401 8.33651C63.261 8.33651 63.544 8.26801 63.7893 8.13102C64.0346 7.99403 64.2291 7.82665 64.3725 7.62876C64.5196 7.43099 64.5989 7.23882 64.6102 7.05239L65.0575 7.56026C65.031 7.72016 64.9593 7.89701 64.8423 8.09105C64.7253 8.2852 64.5687 8.47163 64.3725 8.65047C64.1799 8.82545 63.9498 8.97191 63.6818 9.08985C63.4176 9.20405 63.1194 9.26109 62.7873 9.26109C62.3721 9.26109 62.008 9.17927 61.6947 9.01574C61.3852 8.8521 61.1436 8.63329 60.9701 8.3593C60.8002 8.08158 60.7153 7.77148 60.7153 7.429C60.7153 7.09797 60.7794 6.80692 60.9078 6.55585C61.0361 6.30092 61.2211 6.0897 61.4626 5.92232C61.7041 5.75108 61.9948 5.62169 62.3345 5.53414C62.6741 5.44671 63.0534 5.40287 63.4723 5.40287H64.6895Z" fill="#2C4657"/>
<path d="M69.7679 2.97152V3.7819H66.4561V2.97152H69.7679ZM67.577 1.47046H68.6244V7.61732C68.6244 7.82655 68.6564 7.98447 68.7206 8.09095C68.7847 8.19755 68.8678 8.26792 68.9697 8.30217C69.0716 8.33641 69.181 8.35348 69.298 8.35348C69.3849 8.35348 69.4754 8.34588 69.5698 8.33069C69.6679 8.31163 69.7415 8.29644 69.7905 8.2851L69.7962 9.14691C69.7132 9.17344 69.6038 9.19822 69.4679 9.22102C69.3358 9.24767 69.1754 9.26099 68.9867 9.26099C68.73 9.26099 68.4942 9.20968 68.279 9.10694C68.0639 9.00419 67.8921 8.83295 67.7639 8.59322C67.6392 8.34974 67.577 8.02245 67.577 7.6116V1.47046Z" fill="#2C4657"/>
<path d="M73.4476 8.39355C73.6968 8.39355 73.9269 8.34224 74.1383 8.23949C74.3497 8.13675 74.5232 7.99602 74.6591 7.81718C74.795 7.63449 74.8724 7.42713 74.8912 7.19499H75.8876C75.8687 7.56026 75.7461 7.90087 75.5196 8.2167C75.297 8.52867 75.0045 8.78173 74.6422 8.97577C74.2799 9.16594 73.8817 9.26109 73.4476 9.26109C72.9872 9.26109 72.5852 9.17927 72.2418 9.01574C71.9021 8.8521 71.6191 8.62756 71.3927 8.34224C71.1699 8.0568 71.0019 7.72963 70.8888 7.3605C70.7793 6.98763 70.7246 6.59384 70.7246 6.17912V5.93939C70.7246 5.52467 70.7793 5.13275 70.8888 4.76374C71.0019 4.39075 71.1699 4.06171 71.3927 3.77627C71.6191 3.49095 71.9021 3.26641 72.2418 3.10289C72.5852 2.93924 72.9872 2.85742 73.4476 2.85742C73.9269 2.85742 74.3459 2.95631 74.7044 3.1542C75.0629 3.34823 75.3442 3.61462 75.5479 3.95324C75.7556 4.28812 75.8687 4.66859 75.8876 5.09476H74.8912C74.8724 4.83983 74.8007 4.60956 74.6761 4.40407C74.5553 4.1987 74.3893 4.03506 74.1779 3.91326C73.9704 3.78773 73.7269 3.72496 73.4476 3.72496C73.1268 3.72496 72.857 3.7896 72.6381 3.91899C72.4229 4.04453 72.2512 4.21577 72.1229 4.43271C71.9984 4.64568 71.9078 4.88355 71.8512 5.14607C71.7984 5.40486 71.7719 5.66926 71.7719 5.93939V6.17912C71.7719 6.44925 71.7984 6.71564 71.8512 6.97816C71.904 7.24069 71.9927 7.47844 72.1173 7.69153C72.2455 7.90461 72.4172 8.07585 72.6324 8.20524C72.8513 8.33078 73.1231 8.39355 73.4476 8.39355Z" fill="#2C4657"/>
<path d="M78.1124 0.380371V9.14691H77.0649V0.380371H78.1124ZM77.8632 5.82521L77.4273 5.80803C77.4311 5.38571 77.4933 4.99566 77.6142 4.63799C77.7349 4.27657 77.9047 3.96261 78.1236 3.69634C78.3425 3.42996 78.6029 3.22447 78.9048 3.07988C79.2106 2.93155 79.5484 2.85733 79.9183 2.85733C80.2202 2.85733 80.492 2.89917 80.7335 2.98286C80.975 3.06282 81.1806 3.19221 81.3505 3.37105C81.5242 3.54977 81.6562 3.78191 81.7468 4.06734C81.8373 4.34881 81.8827 4.69316 81.8827 5.10028V9.14691H80.8297V5.08894C80.8297 4.76551 80.7825 4.50672 80.6881 4.31269C80.5938 4.1148 80.456 3.9722 80.2749 3.88465C80.0937 3.79336 79.8711 3.74766 79.6069 3.74766C79.3464 3.74766 79.1087 3.80283 78.8936 3.91317C78.6822 4.02351 78.4991 4.1757 78.3444 4.36973C78.1934 4.56388 78.0746 4.78643 77.9877 5.03751C77.9047 5.28484 77.8632 5.54737 77.8632 5.82521Z" fill="#2C4657"/>
<path d="M86.0493 6.12769V5.99643C86.0493 5.55132 86.1134 5.13848 86.2418 4.75801C86.37 4.37368 86.5551 4.04079 86.7966 3.75921C87.0381 3.47377 87.3306 3.25309 87.674 3.09716C88.0174 2.93737 88.4025 2.85742 88.8289 2.85742C89.2592 2.85742 89.6461 2.93737 89.9895 3.09716C90.3367 3.25309 90.6311 3.47377 90.8726 3.75921C91.1179 4.04079 91.3047 4.37368 91.4331 4.75801C91.5614 5.13848 91.6256 5.55132 91.6256 5.99643V6.12769C91.6256 6.57292 91.5614 6.98576 91.4331 7.36623C91.3047 7.7467 91.1179 8.07971 90.8726 8.36503C90.6311 8.64661 90.3386 8.86729 89.9952 9.02708C89.6555 9.18312 89.2705 9.26109 88.8403 9.26109C88.41 9.26109 88.0231 9.18312 87.6797 9.02708C87.3363 8.86729 87.0419 8.64661 86.7966 8.36503C86.5551 8.07971 86.37 7.7467 86.2418 7.36623C86.1134 6.98576 86.0493 6.57292 86.0493 6.12769ZM87.0966 5.99643V6.12769C87.0966 6.43592 87.1324 6.72697 87.2041 7.00096C87.2759 7.27108 87.3835 7.51082 87.5269 7.72016C87.674 7.92939 87.8571 8.0949 88.076 8.2167C88.2949 8.33464 88.5496 8.39355 88.8403 8.39355C89.1271 8.39355 89.378 8.33464 89.5932 8.2167C89.8121 8.0949 89.9932 7.92939 90.1366 7.72016C90.28 7.51082 90.3876 7.27108 90.4594 7.00096C90.5349 6.72697 90.5726 6.43592 90.5726 6.12769V5.99643C90.5726 5.69205 90.5349 5.40486 90.4594 5.13462C90.3876 4.86075 90.2782 4.61915 90.1311 4.4098C89.9876 4.19672 89.8064 4.02933 89.5875 3.90754C89.3724 3.78586 89.1196 3.72496 88.8289 3.72496C88.5421 3.72496 88.2892 3.78586 88.0703 3.90754C87.8552 4.02933 87.674 4.19672 87.5269 4.4098C87.3835 4.61915 87.2759 4.86075 87.2041 5.13462C87.1324 5.40486 87.0966 5.69205 87.0966 5.99643Z" fill="#2C4657"/>
<path d="M93.9864 4.28999V9.14701H92.9395V2.97162H93.9308L93.9864 4.28999ZM93.7383 5.8253L93.3024 5.80812C93.3058 5.38581 93.3684 4.99576 93.489 4.63808C93.6096 4.27667 93.7789 3.96271 93.998 3.69644C94.2171 3.43005 94.478 3.22456 94.7795 3.07998C95.0855 2.93165 95.4229 2.85742 95.7928 2.85742C96.0942 2.85742 96.3667 2.89927 96.6079 2.98296C96.849 3.06291 97.0554 3.1923 97.2247 3.37114C97.3986 3.54986 97.5308 3.782 97.6212 4.06744C97.7116 4.3489 97.7568 4.69325 97.7568 5.10037V9.14701H96.7041V5.08903C96.7041 4.76561 96.6566 4.50682 96.5626 4.31278C96.4687 4.11489 96.3308 3.97229 96.1499 3.88474C95.9679 3.79345 95.7453 3.74775 95.4809 3.74775C95.2212 3.74775 94.9835 3.80292 94.7679 3.91326C94.5568 4.02361 94.3737 4.17579 94.2194 4.36982C94.0676 4.56397 93.9493 4.78653 93.8623 5.0376C93.7789 5.28494 93.7383 5.54746 93.7383 5.8253Z" fill="#2C4657"/>
<path d="M54.4136 26.8906V22.0842L50.147 14.1545H52.0762L55.3412 20.3262L58.6803 14.1545H60.5354L56.2687 22.0842L56.2502 26.8906H54.4136Z" fill="#2C4657"/>
<path d="M64.2472 27.171C62.9733 27.171 61.9902 26.7659 61.2976 25.9554C60.6051 25.145 60.2588 24.0042 60.2588 22.533C60.2588 21.0742 60.6051 19.9397 61.2976 19.1292C61.9902 18.3188 62.9733 17.9136 64.2472 17.9136C65.5211 17.9136 66.5042 18.3188 67.1968 19.1292C67.8893 19.9397 68.2356 21.0742 68.2356 22.533C68.2356 24.0042 67.8893 25.145 67.1968 25.9554C66.5042 26.7659 65.5211 27.171 64.2472 27.171ZM64.2472 25.6562C64.9768 25.6562 65.5333 25.3882 65.9168 24.852C66.3125 24.3034 66.5104 23.5305 66.5104 22.533C66.5104 21.5605 66.3125 20.8 65.9168 20.2513C65.5333 19.7028 64.9768 19.4284 64.2472 19.4284C63.5299 19.4284 62.9733 19.7028 62.5776 20.2513C62.1819 20.8 61.984 21.5605 61.984 22.533C61.984 23.5305 62.1819 24.3034 62.5776 24.852C62.9733 25.3882 63.5299 25.6562 64.2472 25.6562Z" fill="#2C4657"/>
<path d="M73.448 27.1526C72.4339 27.1526 71.6486 26.8471 71.0921 26.2362C70.5356 25.6253 70.2573 24.7213 70.2573 23.5244V18.1943H71.9825V23.1504C71.9825 23.5743 72.0196 23.967 72.0938 24.3286C72.1805 24.6902 72.3474 24.9831 72.5947 25.2076C72.8544 25.432 73.2378 25.5442 73.7449 25.5442C74.388 25.5442 74.8826 25.3323 75.2289 24.9083C75.5875 24.4845 75.7669 23.8423 75.7669 22.982V18.1943H77.4921V26.8907H75.9338V25.9182C75.637 26.3297 75.2722 26.6414 74.8393 26.8533C74.4188 27.0529 73.9551 27.1526 73.448 27.1526Z" fill="#2C4657"/>
<path d="M81.8449 26.8906V15.819H77.875V14.1545H87.9295L87.3915 15.819H83.6999V26.8906H81.8449Z" fill="#2C4657"/>
<path d="M91.035 27.1526C90.0209 27.1526 89.2355 26.8471 88.679 26.2362C88.1225 25.6253 87.8442 24.7213 87.8442 23.5244V18.1943H89.5695V23.1504C89.5695 23.5743 89.6066 23.967 89.6808 24.3286C89.7674 24.6902 89.9343 24.9831 90.1816 25.2076C90.4413 25.432 90.8248 25.5442 91.3318 25.5442C91.9755 25.5442 92.4694 25.3323 92.8161 24.9083C93.1743 24.4845 93.354 23.8423 93.354 22.982V18.1943H95.0793V26.8907H93.521V25.9182C93.2242 26.3297 92.859 26.6414 92.4265 26.8533C92.0056 27.0529 91.5421 27.1526 91.035 27.1526Z" fill="#2C4657"/>
<path d="M102.121 27.1524C101.02 27.1524 100.166 26.7535 99.5612 25.9555V26.8906H97.9287V14.1545H99.6539V19.0545C100.259 18.3064 101.082 17.9323 102.121 17.9323C103.259 17.9323 104.155 18.3376 104.811 19.148C105.479 19.946 105.813 21.0743 105.813 22.533C105.813 24.0043 105.479 25.1451 104.811 25.9555C104.155 26.7535 103.259 27.1524 102.121 27.1524ZM101.861 25.6375C102.566 25.6375 103.11 25.3757 103.494 24.8521C103.889 24.316 104.088 23.5429 104.088 22.533C104.088 21.573 103.889 20.8187 103.494 20.2701C103.11 19.7215 102.566 19.4472 101.861 19.4472C101.157 19.4472 100.612 19.7215 100.229 20.2701C99.8452 20.8187 99.6539 21.573 99.6539 22.533C99.6539 23.5305 99.8452 24.2973 100.229 24.8334C100.612 25.3695 101.157 25.6375 101.861 25.6375Z" fill="#2C4657"/>
<path d="M111.531 27.1524C110.257 27.1524 109.261 26.7535 108.545 25.9555C107.84 25.1451 107.487 24.0355 107.487 22.6266C107.487 21.7165 107.636 20.9123 107.933 20.214C108.229 19.5033 108.662 18.9486 109.231 18.5495C109.799 18.1381 110.504 17.9324 111.346 17.9324C112.57 17.9324 113.491 18.3314 114.11 19.1293C114.728 19.9148 115.037 20.9808 115.037 22.3273C115.037 22.4769 115.025 22.6142 115 22.7388C114.988 22.8635 114.975 23.0069 114.963 23.1689H109.175C109.237 24.0542 109.491 24.6963 109.936 25.0952C110.393 25.4943 110.999 25.6937 111.754 25.6937C112.149 25.6937 112.502 25.6376 112.811 25.5254C113.12 25.4008 113.454 25.1887 113.813 24.8895L114.685 26.0116C114.214 26.4107 113.726 26.7036 113.219 26.8906C112.724 27.0652 112.162 27.1524 111.531 27.1524ZM111.364 19.3911C110.684 19.3911 110.164 19.6219 109.806 20.0831C109.447 20.5445 109.237 21.1616 109.175 21.9346H113.498C113.472 21.1367 113.287 20.5132 112.941 20.0644C112.607 19.6156 112.081 19.3911 111.364 19.3911Z" fill="#2C4657"/>
<path d="M19.499 5.84311e-10C19.499 5.84311e-10 31.7292 -0.00046933 34.7627 0.839844C36.4706 1.29443 37.755 2.61721 38.2061 4.3252C39.0366 7.34523 39.0391 13.7034 39.0391 13.748C39.0391 13.748 39.0395 20.182 38.2061 23.2402C37.755 24.907 36.4706 26.2573 34.7627 26.7256C31.7292 27.5521 19.499 27.5518 19.499 27.5518C19.4392 27.5518 7.29058 27.55 4.27734 26.7256C2.59683 26.2573 1.28497 24.907 0.806641 23.2402C0.000377236 20.182 0 13.748 0 13.748C9.92334e-06 13.7034 0.00321168 7.34524 0.806641 4.3252C1.28498 2.61723 2.59683 1.29439 4.27734 0.839844C7.2906 0.00172998 19.4392 5.08081e-06 19.499 5.84311e-10ZM15.6201 19.6719L25.7451 13.748L15.6201 7.86621V19.6719Z" fill="#2C4657"/>
</svg>
