<svg width="103" height="30" viewBox="0 0 103 30" fill="none" xmlns="http://www.w3.org/2000/svg">
<path d="M41.8978 22V7.45455H50.9177V9.34375H44.0924V13.7756H50.2714V15.6577H44.0924V22H41.8978ZM57.2405 22.2202C56.2178 22.2202 55.3253 21.9858 54.5629 21.517C53.8006 21.0483 53.2088 20.3925 52.7874 19.5497C52.366 18.7069 52.1553 17.7221 52.1553 16.5952C52.1553 15.4635 52.366 14.474 52.7874 13.6264C53.2088 12.7789 53.8006 12.1207 54.5629 11.652C55.3253 11.1832 56.2178 10.9489 57.2405 10.9489C58.2632 10.9489 59.1557 11.1832 59.9181 11.652C60.6804 12.1207 61.2722 12.7789 61.6936 13.6264C62.115 14.474 62.3257 15.4635 62.3257 16.5952C62.3257 17.7221 62.115 18.7069 61.6936 19.5497C61.2722 20.3925 60.6804 21.0483 59.9181 21.517C59.1557 21.9858 58.2632 22.2202 57.2405 22.2202ZM57.2476 20.4375C57.9105 20.4375 58.4597 20.2623 58.8953 19.9119C59.3309 19.5616 59.6529 19.0952 59.8612 18.5128C60.0743 17.9304 60.1808 17.2888 60.1808 16.5881C60.1808 15.892 60.0743 15.2528 59.8612 14.6705C59.6529 14.0833 59.3309 13.6122 58.8953 13.2571C58.4597 12.902 57.9105 12.7244 57.2476 12.7244C56.58 12.7244 56.026 12.902 55.5857 13.2571C55.1501 13.6122 54.8257 14.0833 54.6127 14.6705C54.4043 15.2528 54.3002 15.892 54.3002 16.5881C54.3002 17.2888 54.4043 17.9304 54.6127 18.5128C54.8257 19.0952 55.1501 19.5616 55.5857 19.9119C56.026 20.2623 56.58 20.4375 57.2476 20.4375ZM66.8197 7.45455V22H64.6961V7.45455H66.8197ZM71.8002 7.45455V22H69.6766V7.45455H71.8002ZM79.2522 22.2202C78.2295 22.2202 77.337 21.9858 76.5747 21.517C75.8124 21.0483 75.2205 20.3925 74.7991 19.5497C74.3777 18.7069 74.167 17.7221 74.167 16.5952C74.167 15.4635 74.3777 14.474 74.7991 13.6264C75.2205 12.7789 75.8124 12.1207 76.5747 11.652C77.337 11.1832 78.2295 10.9489 79.2522 10.9489C80.2749 10.9489 81.1675 11.1832 81.9298 11.652C82.6921 12.1207 83.2839 12.7789 83.7053 13.6264C84.1267 14.474 84.3374 15.4635 84.3374 16.5952C84.3374 17.7221 84.1267 18.7069 83.7053 19.5497C83.2839 20.3925 82.6921 21.0483 81.9298 21.517C81.1675 21.9858 80.2749 22.2202 79.2522 22.2202ZM79.2593 20.4375C79.9222 20.4375 80.4714 20.2623 80.907 19.9119C81.3427 19.5616 81.6646 19.0952 81.873 18.5128C82.086 17.9304 82.1926 17.2888 82.1926 16.5881C82.1926 15.892 82.086 15.2528 81.873 14.6705C81.6646 14.0833 81.3427 13.6122 80.907 13.2571C80.4714 12.902 79.9222 12.7244 79.2593 12.7244C78.5917 12.7244 78.0377 12.902 77.5974 13.2571C77.1618 13.6122 76.8374 14.0833 76.6244 14.6705C76.416 15.2528 76.3119 15.892 76.3119 16.5881C76.3119 17.2888 76.416 17.9304 76.6244 18.5128C76.8374 19.0952 77.1618 19.5616 77.5974 19.9119C78.0377 20.2623 78.5917 20.4375 79.2593 20.4375ZM88.7409 22L85.5306 11.0909H87.7252L89.863 19.1023H89.9695L92.1144 11.0909H94.309L96.4397 19.0668H96.5463L98.6698 11.0909H100.864L97.6613 22H95.4951L93.2792 14.1236H93.1159L90.8999 22H88.7409Z" fill="white"/>
<path d="M15.5951 0.0120612C7.31685 -0.316982 0.341104 6.12679 0.0120588 14.405C-0.316986 22.6832 6.12818 29.6589 14.405 29.9879C22.6832 30.317 29.659 23.8732 29.988 15.595C30.3157 7.31683 23.8719 0.339734 15.5951 0.0120612ZM21.9264 21.9867C21.74 22.3157 21.3767 22.4803 21.0229 22.4309C20.9146 22.4158 20.8063 22.3802 20.7049 22.3226C18.7224 21.1942 16.5616 20.4594 14.283 20.1386C12.0044 19.8177 9.72436 19.9288 7.50742 20.4676C7.0262 20.5841 6.54223 20.2894 6.42569 19.8082C6.30915 19.3269 6.60392 18.843 7.08515 18.7264C9.52282 18.1341 12.029 18.0121 14.5325 18.3645C17.036 18.7168 19.4106 19.5243 21.5919 20.7651C22.021 21.0105 22.1719 21.5562 21.9278 21.9867H21.9264ZM23.898 18.0491C23.5922 18.614 22.8848 18.8251 22.3199 18.5194C20.0002 17.2649 17.4885 16.4409 14.8547 16.0708C12.221 15.7006 9.58041 15.8007 7.00426 16.3669C6.86442 16.3971 6.72594 16.4025 6.59158 16.3834C6.12407 16.3175 5.72373 15.9693 5.61679 15.4799C5.47832 14.8519 5.87591 14.2309 6.50384 14.0924C9.35145 13.4658 12.2703 13.3548 15.1797 13.7633C18.0876 14.1719 20.8639 15.0823 23.4277 16.4697C23.9939 16.7755 24.2037 17.4815 23.898 18.0478V18.0491ZM26.0834 13.6098C25.7955 14.1637 25.1963 14.4502 24.6123 14.368C24.4546 14.346 24.2997 14.2967 24.1502 14.2199C21.4493 12.8146 18.54 11.8864 15.5032 11.46C12.4664 11.0337 9.41314 11.1241 6.4298 11.7301C5.65381 11.8878 4.89837 11.386 4.74071 10.6114C4.58304 9.83539 5.08483 9.07996 5.85946 8.92229C9.16362 8.25186 12.5418 8.15178 15.9022 8.62341C19.2626 9.09504 22.4817 10.1233 25.4733 11.6794C26.1752 12.0441 26.4481 12.9092 26.0834 13.6112V13.6098Z" fill="white"/>
</svg>
