<svg width="106" height="31" viewBox="0 0 106 31" fill="none" xmlns="http://www.w3.org/2000/svg">
<path d="M49.7865 28.3622C47.6648 28.3622 45.8433 27.628 45.0821 26.7937C45.0101 26.7116 45 26.6666 45 26.5665V24.0828C45 23.9647 45.1001 23.9197 45.181 24.0198C46.0963 25.1622 48.0459 26.0954 49.6414 26.0954C50.9109 26.0954 51.7632 25.7514 51.7632 24.627C51.7632 23.9557 51.4461 23.5206 49.7145 23.0315L48.7172 22.7504C46.4055 22.0982 45 21.3269 45 19.1152C45 17.1577 46.8125 15.4351 49.8405 15.4351C51.3269 15.4351 52.8043 15.8973 53.6566 16.5325C53.7286 16.5865 53.7567 16.6416 53.7567 16.7405V18.9983C53.7567 19.1524 53.6296 19.1973 53.5116 19.0984C52.8223 18.5272 51.4899 17.757 49.9124 17.757C48.3349 17.757 47.5917 18.4642 47.5917 19.1164C47.5917 19.8056 48.0718 19.9956 49.7854 20.5039L50.6376 20.758C53.2754 21.5462 54.3549 22.6526 54.3549 24.4842C54.3549 26.8409 52.3973 28.3644 49.7865 28.3644V28.3622ZM68.2702 23.6297C68.2702 22.1882 69.2675 21.1189 70.673 21.1189C72.0785 21.1189 73.0657 22.1882 73.0657 23.6297C73.0657 25.0711 72.0684 26.1404 70.673 26.1404C69.2776 26.1404 68.2702 25.0711 68.2702 23.6297ZM70.6629 28.3622C73.5908 28.3622 75.6304 26.2686 75.6304 23.6297C75.6304 20.9907 73.5908 18.8971 70.6629 18.8971C67.735 18.8971 65.7044 20.9727 65.7044 23.6297C65.7044 26.2866 67.726 28.3622 70.6629 28.3622ZM88.3404 18.354V19.1152H86.7989C86.7168 19.1152 86.6718 19.1602 86.6718 19.2423V21.0548C86.6718 21.1369 86.7168 21.1819 86.7989 21.1819H88.3404V28.017C88.3404 28.0991 88.3854 28.1441 88.4675 28.1441H90.7882C90.8703 28.1441 90.9152 28.0991 90.9152 28.017V21.1819H92.9009L95.7838 27.4458L94.2333 30.8538C94.1883 30.9539 94.2423 30.9989 94.3334 30.9989H96.8081C96.8902 30.9989 96.9262 30.9809 96.9622 30.8988L102.084 19.2592C102.12 19.1771 102.075 19.1141 101.984 19.1141H99.6629C99.5809 19.1141 99.5449 19.1321 99.5089 19.2142L97.1702 24.835L94.8225 19.2142C94.7865 19.1321 94.7505 19.1141 94.6684 19.1141H90.9152V18.516C90.9152 17.5366 91.5775 17.0835 92.4287 17.0835C92.9358 17.0835 93.489 17.3466 93.8791 17.5816C93.9702 17.6356 94.0332 17.5726 93.9972 17.4905L93.1809 15.542C93.1539 15.479 93.1179 15.4419 93.0538 15.4059C92.6547 15.1979 92.0025 15.0157 91.3672 15.0157C89.4457 15.0157 88.3393 16.4842 88.3393 18.3518L88.3404 18.354ZM61.0179 28.3071C63.3387 28.3071 65.0061 26.3034 65.0061 23.6117C65.0061 20.9199 63.3195 18.9522 60.9988 18.9522C59.2763 18.9522 58.2789 20.0035 57.6988 21.0548V19.2423C57.6988 19.1602 57.6538 19.1152 57.5717 19.1152H55.296C55.2139 19.1152 55.1689 19.1602 55.1689 19.2423V30.8729C55.1689 30.955 55.2139 31 55.296 31H57.5717C57.6538 31 57.6988 30.955 57.6988 30.8729V26.2225C58.2789 27.2738 59.2583 28.3071 61.0168 28.3071H61.0179ZM80.3809 28.2711C81.1421 28.2711 81.8763 28.0721 82.3115 27.818C82.3744 27.782 82.3834 27.746 82.3834 27.6819V25.9594C82.3834 25.8683 82.3385 25.8413 82.2564 25.8874C81.9933 26.0325 81.6492 26.1505 81.1781 26.1505C80.4349 26.1505 79.9638 25.7154 79.9638 24.754V21.1819H82.2305C82.3126 21.1819 82.3576 21.1369 82.3576 21.0548V19.2423C82.3576 19.1602 82.3126 19.1152 82.2305 19.1152H79.9638V16.7495C79.9638 16.6495 79.9008 16.5955 79.8097 16.6675L75.7575 19.8585C75.7035 19.9034 75.6855 19.9495 75.6855 20.0215V21.0548C75.6855 21.1369 75.7305 21.1819 75.8126 21.1819H77.3901V25.1341C77.3901 27.2738 78.6224 28.2711 80.382 28.2711H80.3809ZM83.0007 16.4325C83.0007 17.2488 83.6349 17.8649 84.5051 17.8649C85.3754 17.8649 86.0276 17.2488 86.0276 16.4325C86.0276 15.6162 85.3934 15 84.5051 15C83.6169 15 83.0007 15.6162 83.0007 16.4325ZM83.3538 28.1452H85.6745C85.7566 28.1452 85.8016 28.1002 85.8016 28.0181V19.2434C85.8016 19.1613 85.7566 19.1164 85.6745 19.1164H83.3538C83.2717 19.1164 83.2267 19.1613 83.2267 19.2434V28.0181C83.2267 28.1002 83.2717 28.1452 83.3538 28.1452ZM57.6448 23.5948C58.0619 22.1983 59.0222 21.129 60.3276 21.129C61.633 21.129 62.4302 22.0713 62.4302 23.6128C62.4302 25.1543 61.5689 26.1145 60.3276 26.1145C59.0863 26.1145 58.0608 24.9182 57.6448 23.5948Z" fill="white"/>
<path d="M105.057 19.6482C104.937 19.4425 104.772 19.2817 104.561 19.1648C104.349 19.0489 104.113 18.9905 103.85 18.9905C103.587 18.9905 103.351 19.0489 103.139 19.1648C102.928 19.2817 102.763 19.4425 102.644 19.6482C102.524 19.854 102.465 20.0868 102.465 20.3465C102.465 20.6062 102.524 20.8345 102.644 21.0402C102.763 21.246 102.928 21.4068 103.139 21.5237C103.351 21.6407 103.587 21.698 103.85 21.698C104.113 21.698 104.349 21.6395 104.561 21.5237C104.772 21.4079 104.937 21.246 105.057 21.0402C105.176 20.8345 105.235 20.604 105.235 20.3465C105.235 20.089 105.176 19.854 105.057 19.6482ZM104.84 20.9255C104.743 21.0965 104.608 21.2291 104.436 21.3258C104.264 21.4214 104.068 21.4697 103.851 21.4697C103.634 21.4697 103.433 21.4214 103.261 21.3258C103.089 21.2303 102.955 21.0965 102.86 20.9255C102.764 20.7558 102.717 20.5624 102.717 20.3465C102.717 20.1306 102.764 19.9383 102.86 19.7697C102.955 19.601 103.089 19.4683 103.261 19.3728C103.433 19.2772 103.63 19.2288 103.851 19.2288C104.073 19.2288 104.264 19.2772 104.436 19.3728C104.608 19.4683 104.743 19.6021 104.84 19.7731C104.936 19.944 104.985 20.1362 104.985 20.3521C104.985 20.568 104.936 20.7558 104.84 20.9267V20.9255Z" fill="white"/>
<path d="M104.321 20.3206C104.413 20.2532 104.459 20.1632 104.459 20.0519C104.459 19.9406 104.414 19.8461 104.324 19.7787C104.234 19.7112 104.104 19.6775 103.933 19.6775H103.33V20.9368H103.621V20.4365H103.78L104.163 20.9368H104.521L104.101 20.4061C104.19 20.3892 104.266 20.3611 104.322 20.3195L104.321 20.3206ZM103.887 20.2093H103.621V19.9012H103.897C103.979 19.9012 104.042 19.9136 104.086 19.9395C104.13 19.9653 104.152 20.0047 104.152 20.0587C104.152 20.1093 104.128 20.1475 104.083 20.1722C104.037 20.1981 103.972 20.2104 103.887 20.2104V20.2093Z" fill="white"/>
<path d="M45.2147 10.3799V2.05261H46.4711V9.29831H50.2444V10.3799H45.2147ZM51.2137 10.3799V4.13443H52.4294V10.3799H51.2137ZM51.8276 3.17077C51.6162 3.17077 51.4346 3.1003 51.2828 2.95934C51.1337 2.81567 51.0592 2.6449 51.0592 2.44702C51.0592 2.24643 51.1337 2.07565 51.2828 1.93469C51.4346 1.79103 51.6162 1.71919 51.8276 1.71919C52.0391 1.71919 52.2193 1.79103 52.3684 1.93469C52.5202 2.07565 52.5961 2.24643 52.5961 2.44702C52.5961 2.6449 52.5202 2.81567 52.3684 2.95934C52.2193 3.1003 52.0391 3.17077 51.8276 3.17077ZM58.3786 5.6592L57.2767 5.85437C57.2306 5.71341 57.1574 5.57923 57.0571 5.45183C56.9596 5.32443 56.8267 5.22006 56.6587 5.13874C56.4906 5.05742 56.2805 5.01676 56.0284 5.01676C55.6842 5.01676 55.3968 5.09402 55.1664 5.24853C54.936 5.40033 54.8208 5.59685 54.8208 5.8381C54.8208 6.04683 54.8981 6.21489 55.0526 6.34229C55.2071 6.4697 55.4565 6.57406 55.8007 6.65538L56.7929 6.88308C57.3675 7.0159 57.7958 7.22056 58.0777 7.49705C58.3596 7.77354 58.5006 8.13271 58.5006 8.57456C58.5006 8.94863 58.3922 9.28205 58.1753 9.5748C57.9612 9.86485 57.6616 10.0925 57.2767 10.2579C56.8945 10.4233 56.4513 10.5059 55.9471 10.5059C55.2478 10.5059 54.6772 10.3568 54.2353 10.0587C53.7935 9.75778 53.5224 9.33084 53.4221 8.77786L54.5972 8.59895C54.6704 8.90526 54.8208 9.13703 55.0485 9.29425C55.2762 9.44876 55.573 9.52601 55.939 9.52601C56.3375 9.52601 56.656 9.44334 56.8945 9.27798C57.133 9.10992 57.2523 8.90526 57.2523 8.66401C57.2523 8.46884 57.1791 8.30484 57.0327 8.17202C56.8891 8.03919 56.6682 7.9389 56.37 7.87113L55.3128 7.63936C54.73 7.50654 54.299 7.29511 54.0198 7.00506C53.7433 6.71502 53.6051 6.34772 53.6051 5.90316C53.6051 5.53451 53.7081 5.21193 53.9141 4.93544C54.1201 4.65895 54.4047 4.44345 54.768 4.28894C55.1312 4.13172 55.5473 4.05311 56.0162 4.05311C56.6912 4.05311 57.2225 4.19949 57.6101 4.49224C57.9978 4.78229 58.2539 5.17127 58.3786 5.6592ZM62.3863 4.13443V5.11028H58.9749V4.13443H62.3863ZM59.8897 2.63812H61.1055V8.54609C61.1055 8.78192 61.1407 8.95948 61.2112 9.07875C61.2817 9.19531 61.3725 9.27527 61.4836 9.31864C61.5975 9.3593 61.7208 9.37963 61.8536 9.37963C61.9512 9.37963 62.0366 9.37286 62.1098 9.3593C62.183 9.34575 62.2399 9.33491 62.2805 9.32678L62.5001 10.3311C62.4296 10.3582 62.3293 10.3853 62.1992 10.4124C62.0691 10.4422 61.9065 10.4585 61.7113 10.4612C61.3914 10.4666 61.0933 10.4097 60.8168 10.2904C60.5403 10.1712 60.3166 9.98683 60.1459 9.73745C59.9751 9.48806 59.8897 9.17498 59.8897 8.79819V2.63812ZM65.9893 10.5059C65.374 10.5059 64.8441 10.3745 64.3995 10.1115C63.9577 9.84587 63.6161 9.47315 63.3749 8.99336C63.1363 8.51085 63.0171 7.94567 63.0171 7.29782C63.0171 6.65809 63.1363 6.09426 63.3749 5.60634C63.6161 5.11841 63.9523 4.73756 64.3833 4.46378C64.817 4.19 65.3239 4.05311 65.904 4.05311C66.2564 4.05311 66.5979 4.11139 66.9286 4.22795C67.2593 4.34451 67.5561 4.52748 67.8191 4.77686C68.082 5.02625 68.2894 5.35018 68.4412 5.74865C68.593 6.14441 68.6689 6.62556 68.6689 7.1921V7.6231H63.7042V6.7123H67.4775C67.4775 6.39244 67.4125 6.10917 67.2824 5.8625C67.1522 5.61312 66.9693 5.41659 66.7334 5.27292C66.5003 5.12926 66.2265 5.05742 65.9121 5.05742C65.5705 5.05742 65.2724 5.14145 65.0176 5.30952C64.7655 5.47487 64.5703 5.69173 64.4321 5.96009C64.2965 6.22573 64.2287 6.51442 64.2287 6.82615V7.53771C64.2287 7.95516 64.3019 8.31026 64.4483 8.60302C64.5974 8.89577 64.8048 9.11941 65.0704 9.27392C65.3361 9.42572 65.6464 9.50162 66.0015 9.50162C66.232 9.50162 66.442 9.46909 66.6318 9.40403C66.8215 9.33626 66.9855 9.23597 67.1238 9.10314C67.262 8.97032 67.3677 8.80632 67.4409 8.61115L68.5916 8.81852C68.4995 9.15736 68.3341 9.45418 68.0956 9.70898C67.8597 9.96108 67.5629 10.1576 67.2051 10.2986C66.85 10.4368 66.4447 10.5059 65.9893 10.5059ZM70.8671 6.67164V10.3799H69.6514V4.13443H70.8183V5.15094H70.8956C71.0393 4.82024 71.2643 4.55459 71.5706 4.35399C71.8796 4.1534 72.2686 4.05311 72.7375 4.05311C73.1631 4.05311 73.5358 4.14256 73.8557 4.32147C74.1755 4.49766 74.4236 4.7606 74.5998 5.11028C74.776 5.45996 74.8641 5.89232 74.8641 6.40735V10.3799H73.6483V6.55373C73.6483 6.10104 73.5304 5.7473 73.2946 5.49249C73.0587 5.23497 72.7348 5.10621 72.3228 5.10621C72.0409 5.10621 71.7901 5.16721 71.5706 5.28919C71.3537 5.41117 71.1816 5.59007 71.0542 5.82591C70.9295 6.05903 70.8671 6.34094 70.8671 6.67164ZM81.4227 10.5059C80.8372 10.5059 80.3262 10.3718 79.8898 10.1034C79.4534 9.83503 79.1146 9.4596 78.8733 8.9771C78.632 8.49459 78.5114 7.93076 78.5114 7.28562C78.5114 6.63776 78.632 6.07122 78.8733 5.58601C79.1146 5.10079 79.4534 4.72401 79.8898 4.45565C80.3262 4.18729 80.8372 4.05311 81.4227 4.05311C82.0082 4.05311 82.5192 4.18729 82.9556 4.45565C83.392 4.72401 83.7309 5.10079 83.9721 5.58601C84.2134 6.07122 84.334 6.63776 84.334 7.28562C84.334 7.93076 84.2134 8.49459 83.9721 8.9771C83.7309 9.4596 83.392 9.83503 82.9556 10.1034C82.5192 10.3718 82.0082 10.5059 81.4227 10.5059ZM81.4268 9.48535C81.8063 9.48535 82.1207 9.38506 82.3701 9.18446C82.6195 8.98387 82.8038 8.71687 82.9231 8.38345C83.0451 8.05004 83.1061 7.68274 83.1061 7.28155C83.1061 6.88308 83.0451 6.51713 82.9231 6.18372C82.8038 5.84759 82.6195 5.57788 82.3701 5.37457C82.1207 5.17127 81.8063 5.06962 81.4268 5.06962C81.0446 5.06962 80.7274 5.17127 80.4753 5.37457C80.2259 5.57788 80.0403 5.84759 79.9183 6.18372C79.799 6.51713 79.7394 6.88308 79.7394 7.28155C79.7394 7.68274 79.799 8.05004 79.9183 8.38345C80.0403 8.71687 80.2259 8.98387 80.4753 9.18446C80.7274 9.38506 81.0446 9.48535 81.4268 9.48535ZM86.5404 6.67164V10.3799H85.3247V4.13443H86.4916V5.15094H86.5689C86.7125 4.82024 86.9375 4.55459 87.2438 4.35399C87.5528 4.1534 87.9418 4.05311 88.4108 4.05311C88.8364 4.05311 89.2091 4.14256 89.5289 4.32147C89.8488 4.49766 90.0968 4.7606 90.273 5.11028C90.4492 5.45996 90.5373 5.89232 90.5373 6.40735V10.3799H89.3216V6.55373C89.3216 6.10104 89.2037 5.7473 88.9678 5.49249C88.732 5.23497 88.4081 5.10621 87.996 5.10621C87.7141 5.10621 87.4634 5.16721 87.2438 5.28919C87.027 5.41117 86.8548 5.59007 86.7274 5.82591C86.6027 6.05903 86.5404 6.34094 86.5404 6.67164Z" fill="white"/>
<path d="M15.5951 0.0120612C7.31685 -0.316982 0.341104 6.12679 0.0120588 14.405C-0.316986 22.6832 6.12818 29.6589 14.405 29.9879C22.6832 30.317 29.659 23.8732 29.988 15.595C30.3157 7.31683 23.8719 0.339734 15.5951 0.0120612ZM21.9264 21.9867C21.74 22.3157 21.3767 22.4803 21.0229 22.4309C20.9146 22.4158 20.8063 22.3802 20.7049 22.3226C18.7224 21.1942 16.5616 20.4594 14.283 20.1386C12.0044 19.8177 9.72436 19.9288 7.50742 20.4676C7.0262 20.5841 6.54223 20.2894 6.42569 19.8082C6.30915 19.3269 6.60392 18.843 7.08515 18.7264C9.52282 18.1341 12.029 18.0121 14.5325 18.3645C17.036 18.7168 19.4106 19.5243 21.5919 20.7651C22.021 21.0105 22.1719 21.5562 21.9278 21.9867H21.9264ZM23.898 18.0491C23.5922 18.614 22.8848 18.8251 22.3199 18.5194C20.0002 17.2649 17.4885 16.4409 14.8547 16.0708C12.221 15.7006 9.58041 15.8007 7.00426 16.3669C6.86442 16.3971 6.72594 16.4025 6.59158 16.3834C6.12407 16.3175 5.72373 15.9693 5.61679 15.4799C5.47832 14.8519 5.87591 14.2309 6.50384 14.0924C9.35145 13.4658 12.2703 13.3548 15.1797 13.7633C18.0876 14.1719 20.8639 15.0823 23.4277 16.4697C23.9939 16.7755 24.2037 17.4815 23.898 18.0478V18.0491ZM26.0834 13.6098C25.7955 14.1637 25.1963 14.4502 24.6123 14.368C24.4546 14.346 24.2997 14.2967 24.1502 14.2199C21.4493 12.8146 18.54 11.8864 15.5032 11.46C12.4664 11.0337 9.41314 11.1241 6.4298 11.7301C5.65381 11.8878 4.89837 11.386 4.74071 10.6114C4.58304 9.83539 5.08483 9.07996 5.85946 8.92229C9.16362 8.25186 12.5418 8.15178 15.9022 8.62341C19.2626 9.09504 22.4817 10.1233 25.4733 11.6794C26.1752 12.0441 26.4481 12.9092 26.0834 13.6112V13.6098Z" fill="white"/>
</svg>
